<svg width="28" height="28" viewBox="0 0 28 28" fill="none" xmlns="http://www.w3.org/2000/svg">
<path d="M9.3335 2.3335H5.8335C3.9005 2.3335 2.3335 3.9005 2.3335 5.8335V9.3335C2.3335 11.2665 3.9005 12.8335 5.8335 12.8335H9.3335C11.2665 12.8335 12.8335 11.2665 12.8335 9.3335V5.8335C12.8335 3.9005 11.2665 2.3335 9.3335 2.3335Z" fill="#E57F11"/>
<path d="M22.167 2.3335H18.667C16.734 2.3335 15.167 3.9005 15.167 5.8335V9.3335C15.167 11.2665 16.734 12.8335 18.667 12.8335H22.167C24.1 12.8335 25.667 11.2665 25.667 9.3335V5.8335C25.667 3.9005 24.1 2.3335 22.167 2.3335Z" fill="#E57F11"/>
<path d="M9.3335 15.1667H5.8335C3.9005 15.1667 2.3335 16.7338 2.3335 18.6667V22.1667C2.3335 24.0997 3.9005 25.6667 5.8335 25.6667H9.3335C11.2665 25.6667 12.8335 24.0997 12.8335 22.1667V18.6667C12.8335 16.7338 11.2665 15.1667 9.3335 15.1667Z" fill="#E57F11"/>
<path d="M22.167 15.1667H18.667C16.734 15.1667 15.167 16.7338 15.167 18.6667V22.1667C15.167 24.0997 16.734 25.6667 18.667 25.6667H22.167C24.1 25.6667 25.667 24.0997 25.667 22.1667V18.6667C25.667 16.7338 24.1 15.1667 22.167 15.1667Z" fill="#E57F11"/>
</svg>
