<svg width="30" height="30" viewBox="0 0 30 30" fill="none" xmlns="http://www.w3.org/2000/svg">
<path d="M23.0002 0.333496H7.00016C5.2327 0.335613 3.53824 1.03867 2.28846 2.28846C1.03867 3.53824 0.335613 5.2327 0.333496 7.00016V17.6668C0.335435 19.2031 0.86695 20.6917 1.83845 21.8818C2.80996 23.0719 4.16205 23.8907 5.66683 24.2002V28.3335C5.66679 28.5749 5.73229 28.8118 5.85633 29.0188C5.98037 29.2259 6.1583 29.3954 6.37114 29.5093C6.58398 29.6232 6.82375 29.6772 7.06485 29.6655C7.30596 29.6537 7.53936 29.5768 7.74016 29.4428L15.4002 24.3335H23.0002C24.7676 24.3314 26.4621 23.6283 27.7119 22.3785C28.9617 21.1288 29.6647 19.4343 29.6668 17.6668V7.00016C29.6647 5.2327 28.9617 3.53824 27.7119 2.28846C26.4621 1.03867 24.7676 0.335613 23.0002 0.333496ZM20.3335 16.3335H9.66683C9.31321 16.3335 8.97407 16.193 8.72402 15.943C8.47397 15.6929 8.3335 15.3538 8.3335 15.0002C8.3335 14.6465 8.47397 14.3074 8.72402 14.0574C8.97407 13.8073 9.31321 13.6668 9.66683 13.6668H20.3335C20.6871 13.6668 21.0263 13.8073 21.2763 14.0574C21.5264 14.3074 21.6668 14.6465 21.6668 15.0002C21.6668 15.3538 21.5264 15.6929 21.2763 15.943C21.0263 16.193 20.6871 16.3335 20.3335 16.3335ZM23.0002 11.0002H7.00016C6.64654 11.0002 6.3074 10.8597 6.05735 10.6096C5.80731 10.3596 5.66683 10.0205 5.66683 9.66683C5.66683 9.31321 5.80731 8.97407 6.05735 8.72402C6.3074 8.47397 6.64654 8.3335 7.00016 8.3335H23.0002C23.3538 8.3335 23.6929 8.47397 23.943 8.72402C24.193 8.97407 24.3335 9.31321 24.3335 9.66683C24.3335 10.0205 24.193 10.3596 23.943 10.6096C23.6929 10.8597 23.3538 11.0002 23.0002 11.0002Z" fill="#717579"/>
</svg>
