<svg width="32" height="32" viewBox="0 0 32 32" fill="none" xmlns="http://www.w3.org/2000/svg">
<path d="M29.1095 21.9274L26.6669 18.2634V13.3337C26.6669 10.5047 25.5431 7.79158 23.5427 5.79119C21.5423 3.7908 18.8292 2.66699 16.0002 2.66699C13.1712 2.66699 10.4581 3.7908 8.45772 5.79119C6.45734 7.79158 5.33353 10.5047 5.33353 13.3337V18.2634L2.89086 21.9274C2.75743 22.1283 2.68092 22.3616 2.66947 22.6025C2.65803 22.8434 2.71207 23.0828 2.82586 23.2955C2.93965 23.5081 3.10893 23.6859 3.31571 23.81C3.52249 23.9342 3.75903 23.9999 4.0002 24.0003H28.0002C28.2414 23.9999 28.4779 23.9342 28.6847 23.81C28.8915 23.6859 29.0607 23.5081 29.1745 23.2955C29.2883 23.0828 29.3424 22.8434 29.3309 22.6025C29.3195 22.3616 29.243 22.1283 29.1095 21.9274V21.9274Z" fill="#717579"/>
<path d="M15.9998 29.3335C17.182 29.3345 18.3309 28.942 19.2652 28.2177C20.1996 27.4934 20.8662 26.4786 21.1598 25.3335H10.8398C11.1335 26.4786 11.8001 27.4934 12.7344 28.2177C13.6688 28.942 14.8177 29.3345 15.9998 29.3335Z" fill="#717579"/>
</svg>
