<svg width="32" height="28" viewBox="0 0 32 28" fill="none" xmlns="http://www.w3.org/2000/svg">
<path d="M31.444 25.5205L20.7664 17.6031C21.8164 15.9062 22.423 13.9102 22.423 11.7758C22.423 10.4399 22.1876 9.13281 21.7233 7.89062C21.4574 7.17931 20.6651 6.81813 19.9539 7.08406C19.2426 7.34994 18.8815 8.14213 19.1474 8.85344C19.4961 9.78662 19.673 10.7699 19.673 11.7758C19.673 16.408 15.8772 20.1766 11.2115 20.1766C6.54581 20.1766 2.75 16.408 2.75 11.7758C2.75 7.14356 6.54581 3.375 11.2115 3.375C12.5029 3.375 13.7418 3.65588 14.8939 4.20975C15.5784 4.53881 16.3999 4.25069 16.7289 3.56637C17.058 2.882 16.7699 2.06044 16.0856 1.73138C14.5586 0.99725 12.9187 0.625 11.2115 0.625C5.02944 0.625 0 5.62725 0 11.7758C0 17.9244 5.02944 22.9266 11.2115 22.9266C14.2556 22.9266 17.0196 21.7132 19.0419 19.7479L29.8061 27.7295C30.0522 27.9121 30.3393 28.0001 30.6239 28.0001C31.0445 28.0001 31.4597 27.8078 31.7295 27.444C32.1818 26.834 32.0539 25.9728 31.444 25.5205Z" fill="#717579"/>
</svg>
